<svg data-name="Layer 1" xmlns="http://www.w3.org/2000/svg" viewBox="0 0 122.88 81.14"><path fill="#042e60" d="M4.73 48.37h11.62a1.35 1.35 0 0 1 1.34 1.35V79.8a1.34 1.34 0 0 1-1.34 1.34H4.73a1.35 1.35 0 0 1-1.35-1.34V49.72a1.36 1.36 0 0 1 1.35-1.35zM116 17.59a6.86 6.86 0 1 1-6.84 7.22L91.44 12.36a6.88 6.88 0 0 1-4.09 1.34 6.81 6.81 0 0 1-4.24-1.47L68.23 23.55a6.54 6.54 0 0 1 .06.89 6.85 6.85 0 1 1-13.58-1.28l-15.18-11a6.87 6.87 0 0 1-8.44.1L13.7 24.68a6.86 6.86 0 1 1-2.16-5.23l16.88-12v-.59a6.85 6.85 0 1 1 13.7 0v.41l15.7 11.35a6.86 6.86 0 0 1 3.62-1 6.78 6.78 0 0 1 3.91 1.23L80.52 7.27v-.42a6.86 6.86 0 0 1 13.71 0 5.12 5.12 0 0 1 0 .69l17.09 12a6.8 6.8 0 0 1 4.68-1.95zm-9.5 28h11.62A1.36 1.36 0 0 1 119.5 47v32.8a1.35 1.35 0 0 1-1.35 1.34h-11.62a1.34 1.34 0 0 1-1.34-1.34V47a1.35 1.35 0 0 1 1.34-1.35zm-25.42-17.1H92.7a1.36 1.36 0 0 1 1.35 1.35v50a1.35 1.35 0 0 1-1.35 1.34H81.08a1.34 1.34 0 0 1-1.34-1.34v-50a1.34 1.34 0 0 1 1.34-1.35zM55.63 45.61h11.62A1.35 1.35 0 0 1 68.59 47v32.8a1.34 1.34 0 0 1-1.34 1.34H55.63a1.34 1.34 0 0 1-1.34-1.34V47a1.35 1.35 0 0 1 1.34-1.35zM30.18 28.49H41.8a1.35 1.35 0 0 1 1.34 1.35v50a1.34 1.34 0 0 1-1.34 1.34H30.18a1.35 1.35 0 0 1-1.35-1.34v-50a1.35 1.35 0 0 1 1.35-1.35z" style="fill-rule:evenodd"/></svg>